<?xml version="1.0" encoding="utf-8"?>
<!-- Generator: Adobe Illustrator 16.0.0, SVG Export Plug-In . SVG Version: 6.00 Build 0)  -->
<!DOCTYPE svg PUBLIC "-//W3C//DTD SVG 1.1//EN" "http://www.w3.org/Graphics/SVG/1.1/DTD/svg11.dtd">
<svg version="1.1" id="Layer_1" xmlns="http://www.w3.org/2000/svg" xmlns:xlink="http://www.w3.org/1999/xlink" x="0px" y="0px"
	 width="324px" height="60.334px" viewBox="0 0 324 60.334" enable-background="new 0 0 324 60.334" xml:space="preserve">
<g>
	<path fill-rule="evenodd" clip-rule="evenodd" fill="#BDB6A2" d="M122.153,45.932c-2.326,0-4.555,0-7.023,0
		c1.556-6.687,3.086-13.282,4.624-19.884c-0.056-0.027-0.112-0.058-0.163-0.088c-0.194,0.363-0.399,0.721-0.587,1.088
		c-3.053,5.986-6.124,11.961-9.142,17.966c-0.372,0.739-0.779,1.049-1.608,0.99c-1.114-0.072-2.237-0.018-3.499-0.018
		c-0.734-6.681-1.463-13.304-2.191-19.926c-0.082-0.006-0.166-0.015-0.243-0.021c-0.335,2.129-0.644,4.261-1.006,6.384
		c-0.733,4.287-1.485,8.568-2.278,12.844c-0.052,0.279-0.503,0.676-0.777,0.686c-2.029,0.059-4.061,0.033-6.223,0.033
		c2.016-10.1,4.007-20.081,6.008-30.105c3.011,0,5.946,0,9.034,0c0.558,6.951,1.118,13.885,1.675,20.814
		c0.077,0.021,0.154,0.045,0.23,0.062c0.195-0.376,0.398-0.748,0.58-1.132c3.023-6.272,6.061-12.543,9.054-18.833
		c0.351-0.744,0.749-1.012,1.582-0.99c2.572,0.064,5.147,0.023,7.954,0.023C126.148,25.881,124.163,35.841,122.153,45.932z"/>
	<path fill-rule="evenodd" clip-rule="evenodd" fill="#BDB6A2" d="M190.677,45.98c-2.544,0-4.94,0.031-7.338-0.037
		c-0.277-0.006-0.678-0.506-0.785-0.853c-0.977-3.075-1.893-6.172-2.831-9.261c-0.576-1.893-0.581-1.891-2.762-1.753
		c-0.786,3.911-1.58,7.867-2.387,11.857c-2.273,0-4.508,0-6.858,0c2.001-10.026,3.989-20.004,5.991-30.038c2.278,0,4.545,0,6.869,0
		c-0.778,3.938-1.546,7.834-2.312,11.726c1.964,0.417,2.01,0.396,2.975-1.272c1.869-3.23,3.72-6.471,5.625-9.681
		c0.213-0.362,0.693-0.799,1.061-0.806c2.728-0.07,5.461-0.037,8.438-0.037c-1.205,1.668-2.279,3.168-3.364,4.658
		c-2.273,3.12-4.531,6.248-6.845,9.34c-0.479,0.64-0.558,1.178-0.297,1.928c1.48,4.259,2.913,8.539,4.36,12.812
		C190.362,44.986,190.493,45.415,190.677,45.98z"/>
	<path fill-rule="evenodd" clip-rule="evenodd" fill="#BDB6A2" d="M165.017,24.689c-0.179,0.024-0.375,0.084-0.577,0.084
		c-1.947,0.004-3.894,0.001-5.928,0.001c-0.031-0.296-0.072-0.524-0.08-0.757c-0.062-2.168-1.347-3.296-3.672-3.214
		c-2.119,0.068-3.768,1.568-3.548,3.468c0.078,0.7,0.627,1.588,1.23,1.944c1.417,0.838,3.034,1.329,4.49,2.108
		c1.812,0.971,3.707,1.897,5.285,3.188c3.482,2.854,2.145,8.901-0.261,11.385c-3.028,3.133-6.889,3.768-10.995,3.497
		c-2.309-0.156-4.456-0.875-6.355-2.267c-2.34-1.718-2.547-4.289-2.093-6.587c0.038-0.207,0.45-0.477,0.692-0.486
		c1.948-0.036,3.893-0.021,5.897-0.021c0.036,0.229,0.083,0.382,0.085,0.53c0.046,2.26,0.959,3.202,3.337,3.424
		c2.507,0.236,4.371-0.848,4.775-2.777c0.265-1.264-0.039-2.35-1.197-3.004c-1.221-0.695-2.527-1.242-3.758-1.91
		c-1.958-1.07-4.025-2.001-5.796-3.319c-4.083-3.053-2.478-9.231,0.621-11.662c4.233-3.319,9.004-3.896,13.954-1.936
		C164.621,17.762,165.898,20.768,165.017,24.689z"/>
	<path fill-rule="evenodd" clip-rule="evenodd" fill="#BDB6A2" d="M22.074,37.034c-0.289,1.776,0.096,3.075,1.823,3.616
		c1.975,0.615,3.872,0.641,5.456-0.917c1.335-1.314,1.143-3.525-0.451-4.524c-1.181-0.746-2.498-1.28-3.755-1.912
		c-1.514-0.764-3.122-1.387-4.522-2.322c-4.649-3.101-4.894-9.174-0.542-12.755c2.987-2.458,6.524-3.215,10.278-2.749
		c1.524,0.188,3.108,0.66,4.457,1.39c2.885,1.562,3.838,4.3,3.001,7.846c-2.125,0-4.272,0-6.512,0
		c-0.023-0.233-0.055-0.468-0.06-0.697c-0.062-2.169-1.345-3.285-3.682-3.205c-2.112,0.073-3.768,1.587-3.54,3.474
		c0.083,0.703,0.637,1.587,1.24,1.939c1.417,0.84,3.032,1.328,4.491,2.107c1.779,0.945,3.638,1.85,5.194,3.106
		c3.553,2.874,2.249,8.784-0.024,11.286c-2.979,3.272-6.881,3.941-11.031,3.685c-2.398-0.144-4.64-0.87-6.583-2.354
		c-2.28-1.752-2.42-4.279-1.986-6.516c0.041-0.202,0.456-0.469,0.703-0.477C17.977,37.019,19.923,37.034,22.074,37.034z"/>
	<path fill-rule="evenodd" clip-rule="evenodd" fill="#BDB6A2" d="M262.146,15.858c6.569,0,13.003,0,19.614,0
		c-0.318,1.694-0.584,3.345-0.977,4.971c-0.051,0.229-0.709,0.446-1.085,0.447c-3.866,0.033-7.724,0.02-11.723,0.02
		c-0.436,2.12-0.867,4.21-1.329,6.47c3.614,0,7.15,0,10.786,0c-0.377,1.919-0.719,3.665-1.082,5.502
		c-3.139,0-6.249,0.033-9.361-0.017c-1.007-0.02-1.557,0.124-1.716,1.318c-0.258,1.954-0.764,3.876-1.186,5.938
		c4.286,0,8.432,0,12.696,0c-0.331,1.741-0.611,3.367-0.964,4.973c-0.049,0.209-0.458,0.483-0.702,0.483
		c-6.27,0.025-12.541,0.017-18.988,0.017C258.151,35.87,260.147,25.87,262.146,15.858z"/>
	<path fill-rule="evenodd" clip-rule="evenodd" fill="#BDB6A2" d="M84.95,15.826c0.982,10.09,1.952,20.022,2.935,30.066
		c-2.287,0-4.501,0-6.865,0c-0.146-1.805-0.291-3.646-0.447-5.634c-2.683,0-5.327-0.017-7.969,0.032
		c-0.247,0.003-0.564,0.412-0.713,0.706c-0.687,1.368-1.354,2.749-1.969,4.152c-0.264,0.609-0.578,0.876-1.283,0.854
		c-1.936-0.054-3.874-0.018-5.994-0.018c1.213-2.444,2.348-4.731,3.479-7.02c3.665-7.388,7.339-14.767,10.97-22.167
		c0.367-0.744,0.773-1.021,1.603-0.994C80.723,15.867,82.755,15.826,84.95,15.826z M80.243,34.714
		c-0.218-3.335-0.434-6.601-0.647-9.866c-0.092-0.013-0.185-0.026-0.272-0.043c-1.511,3.272-3.023,6.547-4.578,9.909
		C76.681,34.714,78.408,34.714,80.243,34.714z"/>
	<path fill-rule="evenodd" clip-rule="evenodd" fill="#BDB6A2" d="M291.763,21.312c-2.419,0-4.689,0-7.094,0
		c0.348-1.83,0.68-3.562,1.028-5.386c6.989,0,13.98,0,21.16,0c-0.335,1.755-0.672,3.509-1.024,5.368c-2.416,0-4.766,0-7.174,0
		c-0.95,4.717-1.885,9.336-2.811,13.952c-0.67,3.328-1.326,6.656-2.022,9.977c-0.059,0.282-0.386,0.716-0.602,0.72
		c-2.099,0.059-4.204,0.037-6.398,0.037C288.483,37.699,290.113,29.561,291.763,21.312z"/>
	<path fill-rule="evenodd" clip-rule="evenodd" fill="#BDB6A2" d="M40.424,45.924c2.011-10.075,4.006-20.053,6.003-30.055
		c2.279,0,4.475,0,6.866,0c-1.644,8.213-3.267,16.347-4.923,24.633c3.995,0,7.879,0,11.89,0c-0.371,1.896-0.713,3.633-1.064,5.422
		C52.954,45.924,46.779,45.924,40.424,45.924z"/>
	<path fill-rule="evenodd" clip-rule="evenodd" fill="#BDB6A2" d="M228.6,40.484c-0.379,1.926-0.723,3.662-1.071,5.444
		c-6.249,0-12.425,0-18.768,0c2.004-10.052,4.001-20.05,6.002-30.059c2.299,0,4.49,0,6.863,0c-1.643,8.223-3.268,16.36-4.919,24.614
		C220.67,40.484,224.52,40.484,228.6,40.484z"/>
	<path fill-rule="evenodd" clip-rule="evenodd" fill="#BDB6A2" d="M245.323,15.869c-1.653,8.26-3.275,16.373-4.929,24.631
		c4,0,7.881,0,11.892,0c-0.368,1.893-0.713,3.631-1.062,5.42c-6.241,0-12.414,0-18.77,0c2.002-10.033,3.996-20.033,5.995-30.051
		C240.734,15.869,242.925,15.869,245.323,15.869z"/>
	<path fill-rule="evenodd" clip-rule="evenodd" fill="#BDB6A2" d="M207.802,15.826c-2.021,10.121-4.012,20.096-6.013,30.111
		c-2.243,0-4.433,0-6.799,0c0.382-1.999,0.732-3.932,1.118-5.855c1.554-7.751,3.133-15.494,4.65-23.248
		c0.154-0.768,0.371-1.049,1.165-1.027C203.832,15.858,205.739,15.826,207.802,15.826z"/>
</g>
</svg>
